<?xml version="1.0" encoding="UTF-8"?><svg id="Layer_1" xmlns="http://www.w3.org/2000/svg" viewBox="0 0 211.74 292.57"><defs><style>.cls-1{fill:#fff;stroke-width:0px;}</style></defs><path class="cls-1" d="M114.87,0c6.15,1.16,12.44,1.82,18.42,3.56,30.73,8.98,56.02,25.45,70.32,55.07,12.57,26.03,10.48,51.74-5.68,75.76-6.39,9.5-15.91,16-25.49,22.14-6.63,4.25-13.64,8.02-19.83,12.84-6.38,4.96-10.6,11.88-13.32,19.56-.56,1.59-.87,3.32-1.01,5-.56,6.91-4.78,10.95-11.64,10.96-16.19,0-32.37,0-48.56,0-7.39,0-10.76-2.46-11.72-9.88-2.17-16.77.61-32.43,11.74-45.86,9.78-11.8,21.25-21.46,35.22-28.01,6.72-3.15,13.25-6.64,18.56-12.05,6.25-6.37,10.22-21.87,1.12-30.61-6.15-5.91-13.41-9.7-21.8-10.97-10.98-1.66-21.81-.86-31.35,5.34-4.48,2.91-8.34,6.92-12.04,10.83-4.57,4.83-8.72,10.07-13,15.18-4.44,5.3-9.11,5.96-14.67,1.76-12.07-9.13-24.1-18.31-36.1-27.52-4.28-3.29-5.22-7.86-2.5-12.37C14.04,40.06,30.11,23.02,52.04,12.14,65.47,5.47,79.74,1.77,94.68.57c1.02-.08,2.03-.38,3.05-.57,5.71,0,11.43,0,17.14,0Z"/><path class="cls-1" d="M72.58,292.57c-5.26-2.55-6.9-6.83-6.83-12.53.22-16.46.23-32.93,0-49.39-.09-6.48,4.07-11.46,11.19-11.32,17.32.34,34.64.1,51.96.11,6.39,0,10.22,3.58,10.26,10,.1,17.7,0,35.41.05,53.11.02,4.9-2.71,7.82-6.63,10.03h-60Z"/></svg>